# xmcd CD database file
#
# Track frame offsets:
#	150
#	8552
#	17402
#	26927
#	43324
#	53393
#	67626
#	78136
#	92283
#	103946
#	112604
#	126986
#	139503
#	151091
#	165866
#
# Disc length: 2329 seconds
#
# Revision: 0
# Processed by: cddbd v1.4PL0 Copyright (c) Steve Scherf et al.
# Submitted via: CDex 1.51
#
DISCID=9909170f
DTITLE=The Midday Ramblers - Free Country Music
DYEAR=2001
DGENRE=Country
TTITLE0=The Games Sweethearts Play
TTITLE1=Big Ball in Burton
TTITLE2=Within the Storm
TTITLE3=Going down to Willow Creek
TTITLE4=Married to Misery
TTITLE5=Leavin' Tennessee
TTITLE6=If You dont love Your Neighbor
TTITLE7=Lone Oak
TTITLE8=Charming Betsy
TTITLE9=Killing Frost
TTITLE10=Daddy Bryson's Last Ride
TTITLE11=Lonesome Whistle
TTITLE12=Hay Fever
TTITLE13=It's a Long, Long Road
TTITLE14=Brown-Eyed Rabbit
EXTD=YEAR: 2001
EXTT0=
EXTT1=
EXTT2=
EXTT3=
EXTT4=
EXTT5=
EXTT6=
EXTT7=
EXTT8=
EXTT9=
EXTT10=
EXTT11=
EXTT12=
EXTT13=
EXTT14=
PLAYORDER=
